<?xml version="1.0" encoding="utf-8"?>
<!-- Generator: Adobe Illustrator 24.1.2, SVG Export Plug-In . SVG Version: 6.00 Build 0)  -->
<svg version="1.1" id="Слой_1" xmlns="http://www.w3.org/2000/svg" xmlns:xlink="http://www.w3.org/1999/xlink" x="0px" y="0px"
	 viewBox="0 0 1133.86 1133.86" style="enable-background:new 0 0 1133.86 1133.86;" xml:space="preserve">
<style type="text/css">
	.st0{fill:#C8A561;}
</style>
<path class="st0" d="M911.42,311.81l-688.99,0c-44.57,0-80.7-36.13-80.7-80.7v-37.02c0-44.57,36.13-80.7,80.7-80.7l688.99,0
	c44.57,0,80.7,36.13,80.7,80.7l0,37.02C992.13,275.68,955.99,311.81,911.42,311.81z"/>
<path class="st0" d="M911.42,666.14l-688.99,0c-44.57,0-80.7-36.13-80.7-80.7v-37.02c0-44.57,36.13-80.7,80.7-80.7l688.99,0
	c44.57,0,80.7,36.13,80.7,80.7l0,37.02C992.13,630.01,955.99,666.14,911.42,666.14z"/>
<path class="st0" d="M911.42,1020.47l-688.99,0c-44.57,0-80.7-36.13-80.7-80.7v-37.02c0-44.57,36.13-80.7,80.7-80.7l688.99,0
	c44.57,0,80.7,36.13,80.7,80.7l0,37.02C992.13,984.34,955.99,1020.47,911.42,1020.47z"/>
</svg>
