<svg id="Layer_1" data-name="Layer 1" xmlns="http://www.w3.org/2000/svg" viewBox="0 0 211.4 111.31"><defs><style>.cls-1{fill:#2e3236;}.cls-2{fill:#c8a561;}.cls-3{fill:#fff;}</style></defs><rect class="cls-1" width="211.4" height="111.31"/><path class="cls-2" d="M11.37,81.37V78.64H8.1v-.5h3.27V74.4H8.1v-.5h3.27V70.16H8.1v-.49h3.27V65.79H8.1v-11h6.78V81.37Zm36.16,9.07H52.2v.5H47.82l-1.06,1.83a5.59,5.59,0,0,1,.82,1.57H52.2v.5H47.72a5.19,5.19,0,0,1,.16,1.32v2.3H52.2V99H47.88v3.74H52.2v.5H47.88v3.73H52.2v.5H47.88v2.73h9.26v.5H8.1v-.5h3.27v-2.73H8.1v-.5h3.27V103.2H8.1v-.5h3.27V99H8.1v-.5h3.27V94.59H8.1V90.45a5.83,5.83,0,0,1,2.31.62l.71-1.24V88h-3V81.87H14V88H11.62v2l-.78,1.35a5.59,5.59,0,0,1,1.26,1.07l1.13-2h6.23l1.17,2a5.65,5.65,0,0,1,1.21-1.08L21,90V88H18.88V81.87H31.09V88H28.76v2L28,91.3a5.64,5.64,0,0,1,1.27,1.07l1.12-1.93h6.24l1.17,2a6.07,6.07,0,0,1,1.3-1.13L38.3,90V88H36V81.87H48.23V88H46v2l-.79,1.37a5.74,5.74,0,0,1,1.19,1Zm-28.27,17H13.53v2.73h5.73Zm0-4.23H13.53v3.73h5.73Zm0-4.24H13.53v3.74h5.73Zm.16-4.12H13.37a5.68,5.68,0,0,1,.16,1.32v2.3h5.73v-2.3A5.68,5.68,0,0,1,19.42,94.84Zm.88-2-1.12-1.94H13.51l-1.08,1.87a5.29,5.29,0,0,1,.79,1.53h6.35A5.7,5.7,0,0,1,20.3,92.88Zm4.44,14.55H21.42v2.73h3.32Zm0-4.23H21.42v3.73h3.32Zm0-4.24H21.42v3.74h3.32Zm0-4.37H21.42v3.87h3.32ZM25,90.44a5.66,5.66,0,0,1,2.57.61l.71-1.22V88H21.53v1.88l.74,1.29A5.76,5.76,0,0,1,25,90.44Zm3.57,17H25.23v2.73h3.32Zm0-4.23H25.23v3.73h3.32Zm0-4.24H25.23v3.74h3.32Zm0-4.37H25.23v3.87h3.32Zm7.89,12.84H30.71v2.73h5.73Zm0-4.23H30.71v3.73h5.73Zm0-4.24H30.71v3.74h5.73Zm.17-4.12H30.55a5.68,5.68,0,0,1,.16,1.32v2.3h5.73v-2.3A5.19,5.19,0,0,1,36.61,94.84Zm.86-1.94-1.14-2H30.67L29.6,92.79a5.84,5.84,0,0,1,.8,1.55h6.35A5.4,5.4,0,0,1,37.47,92.9Zm4.45,1.69H38.6v15.57h3.32v-2.73H38.6v-.5h3.32V103.2H38.6v-.5h3.32V99H38.6v-.5h3.32Zm.24-4.15a5.65,5.65,0,0,1,2.65.65l.72-1.26V88H38.8v1.88l.72,1.26A5.64,5.64,0,0,1,42.16,90.44Zm3.57,17H42.41v2.73h3.32Zm0-4.23H42.41v3.73h3.32Zm0-4.24H42.41v3.74h3.32Zm0-4.37H42.41v3.87h3.32ZM8.1,32.77H52.2v.5h-4v1.61h4v.5h-4V37h4v.5H49.15V54.3H35.09V37.49H32V54.3H18V37.49H14.88V54.3H8.1V50.43h4.7V49.08H8.1v-.5h3.27V45H8.1v-.5h3.27V40.71H8.1v-.49h3.27V36.34H8.1ZM38.6,48.58h3.32V45H38.6v-.5h3.32V40.71H38.6v-.49h3.32V36.34h.49v3.88h3.32V36.34H38.6V48.58Zm7.13-4.13V40.71H42.41v3.74Zm-3.32.5v3.63h3.32V45Zm-5.24,5.48h10V49.08h-10ZM31.09,34.88H36V33.27H31.09Zm0,2.11H36V35.38H31.09Zm-9.67,3.23h3.32V36.34h.49v3.88h3.32V36.34H21.42v3.88Zm7.13,4.23V40.71H25.23v3.74Zm-3.32.5v3.63h3.32V45Zm-3.81-.5h3.32V40.71H21.42Zm0,4.13h3.32V45H21.42ZM20,50.43H30V49.08H20ZM14,34.88h4.92V33.27H14ZM14,37h4.92V35.38H14ZM28.55,81.37V78.64H25.23v2.73h-.49V78.64H21.42v2.73H18V54.8H32V81.37Zm-3.81-7H21.42v3.74h3.32Zm0-4.24H21.42V73.9h3.32Zm0-4.37H21.42v3.88h3.32Zm.49,3.88h3.32V65.79H25.23Zm0,4.23h3.32V70.16H25.23Zm3.32,4.24V74.4H25.23v3.74ZM53.76,25.66,8.1,7.19v3L47,25.89H33.78L8.1,15.51V26.4H54.42v-.5Zm-8,55.71V78.64H42.41v2.73h-.49V78.64H38.6v-.5h3.32V74.4H38.6v-.5h3.32V70.16H38.6v-.49h3.32V65.79H38.6V81.37H35.09V54.8H49.15V81.37Zm-3.32-11.7h3.32V65.79H42.41Zm0,4.23h3.32V70.16H42.41Zm3.32,4.24V74.4H42.41v3.74Z" transform="translate(-8.1 -7.07)"/><path class="cls-3" d="M70.44,95.86h4.12V93h.75v6.73h-.75V96.6H70.44v3.13h-.75V93h.75Zm5.78,3.87L79,93h.25l2.82,6.73h-.84l-.8-1.94H77.85l-.79,1.94ZM78.16,97h2l-1-2.46Zm12.89-4v6.73H90.3v-6H86.18v6h-.75V93Zm4.75-.15a3.52,3.52,0,1,1-3.45,3.52A3.46,3.46,0,0,1,95.8,92.85Zm0,6.3a2.79,2.79,0,1,0-2.69-2.78A2.68,2.68,0,0,0,95.8,99.15Zm4.75.58V93h.74v2.86H102L104.52,93h.91l-2.82,3.22c.87.13,1.54,2.8,2.82,2.8a1.27,1.27,0,0,0,.26,0v.75a1.54,1.54,0,0,1-.43.06c-1.72,0-2.47-3.19-3.31-3.19h-.66v3.13Zm6.76-2.52v2.52h-.75V93h1.83a2.11,2.11,0,1,1,0,4.21Zm1-.73a1.42,1.42,0,0,0,1.48-1.39,1.4,1.4,0,0,0-1.48-1.36h-1v2.75Zm6.35-3.63a3.52,3.52,0,1,1-3.44,3.52A3.46,3.46,0,0,1,114.67,92.85Zm0,6.3A2.79,2.79,0,1,0,112,96.37,2.69,2.69,0,0,0,114.67,99.15Zm4.75.58V93h1.81A1.69,1.69,0,0,1,123,94.65a1.6,1.6,0,0,1-1,1.54,1.65,1.65,0,0,1,1.45,1.73,1.88,1.88,0,0,1-2,1.81Zm.75-3.87h1a1,1,0,0,0,1.07-1.06c0-.71-.51-1.07-1.25-1.07h-.84Zm1,3.14c.82,0,1.48-.4,1.48-1.19a1.33,1.33,0,0,0-1.48-1.21h-1V99Zm3-2.63a3.51,3.51,0,0,1,6.38-2l-.6.43A2.79,2.79,0,1,0,130,98l.6.43a3.51,3.51,0,0,1-6.38-2Zm7.54,3.36V93h.74v2.86h.71L135.73,93h.91l-2.82,3.22c.87.13,1.54,2.8,2.82,2.8a1.27,1.27,0,0,0,.26,0v.75a1.54,1.54,0,0,1-.43.06c-1.72,0-2.47-3.19-3.31-3.19h-.66v3.13Zm8.83-6.88a3.52,3.52,0,1,1-3.45,3.52A3.46,3.46,0,0,1,140.59,92.85Zm0,6.3a2.79,2.79,0,1,0-2.69-2.78A2.68,2.68,0,0,0,140.59,99.15Zm5-6.15h.3l2.65,5.37L151.19,93h.3l.61,6.73h-.76l-.4-4.53-2.26,4.53h-.31l-2.25-4.53-.41,4.53H145Zm14.23,4.8a1.91,1.91,0,0,1-2,1.93h-2V93h3.53v.73h-2.78v2.12h1.24A1.92,1.92,0,0,1,159.79,97.8Zm-2.14-1.2h-1.13V99h1.13c.82,0,1.39-.4,1.39-1.19A1.25,1.25,0,0,0,157.65,96.6Zm5,1.55L160.08,93H161l2.11,4.28L165.15,93H166l-3.3,6.73h-.85Zm2.89.83a1.16,1.16,0,0,0,.31.07c1,0,1.54-1.17,1.54-6h4.15v6.73h-.74v-6h-2.7c0,5-.78,6.09-2.11,6.09a2.54,2.54,0,0,1-.45-.06ZM177,97.8a1.9,1.9,0,0,1-2,1.93h-2V93h.75v2.86H175A1.92,1.92,0,0,1,177,97.8Zm-2.13-1.2h-1.14V99h1.14c.82,0,1.38-.4,1.38-1.19A1.24,1.24,0,0,0,174.87,96.6ZM178,99.73V93h1.81a1.69,1.69,0,0,1,1.79,1.65,1.61,1.61,0,0,1-1,1.54A1.64,1.64,0,0,1,182,97.92a1.87,1.87,0,0,1-2,1.81Zm.75-3.87h1a1,1,0,0,0,1.07-1.06c0-.71-.51-1.07-1.25-1.07h-.84Zm1,3.14c.82,0,1.48-.4,1.48-1.19a1.33,1.33,0,0,0-1.48-1.21h-1V99Zm2.62.73L185.25,93h.24l2.82,6.73h-.84l-.79-1.94h-2.62l-.79,1.94ZM184.37,97h2l-1-2.46Zm5.61.17v2.52h-.75V93h1.84a2.11,2.11,0,1,1,0,4.21Zm1-.73a1.42,1.42,0,0,0,1.48-1.39A1.4,1.4,0,0,0,191,93.73h-1v2.75Zm6.58,3.25h-3.33V93h3.33v.73H195v2.13h2.34v.74H195V99h2.58ZM71.5,55.26H69.67V49.07h2c1.44-2.6,3.21-6.12,3.21-16H86v16h2.42v6.19h-1.8V51H71.5ZM84,34.91H76.79c0,8.33-1.77,11.74-3,14.16H84ZM99.8,32.65A9.38,9.38,0,1,1,90.6,42,9.23,9.23,0,0,1,99.8,32.65Zm0,16.8A7.15,7.15,0,0,0,107,42a7.17,7.17,0,1,0-14.34,0A7.15,7.15,0,0,0,99.8,49.45ZM113.05,33h.82l7.06,14.33L128.08,33h.82l1.62,18h-2l-1.08-12.1-6,12.1h-.85l-6-12.1L113.46,51h-2Zm-41.55,53H69.67V79.88h2c1.44-2.59,3.21-6.11,3.21-16H86v16h2.42v6.19h-1.8V81.84H71.5ZM84,65.73H76.79c0,8.32-1.77,11.74-3,14.15H84ZM96.15,77.6,89.32,63.85h2.31l5.65,11.44,5.58-11.44h2.28l-8.81,18H94.07Zm13.17-2.49v6.73h-2v-18h4.91a5.63,5.63,0,1,1,0,11.26Zm2.7-2a3.8,3.8,0,0,0,4-3.7,3.76,3.76,0,0,0-4-3.64h-2.7v7.34Zm5.19,8.69,7.52-18h.65l7.52,18h-2.23l-2.13-5.19h-7l-2.11,5.19Zm5.16-7.2h5.34L125,68.09Zm11-1.8a9.37,9.37,0,0,1,17-5.39l-1.59,1.13a7.43,7.43,0,1,0,0,8.53l1.59,1.13a9.37,9.37,0,0,1-17-5.4Zm28.15-9.37a9.38,9.38,0,1,1-9.2,9.37A9.23,9.23,0,0,1,161.56,63.47Zm0,16.8a7.43,7.43,0,1,0-7.17-7.43A7.15,7.15,0,0,0,161.56,80.27Zm12.65,1.57v-18H179a4.52,4.52,0,0,1,4.78,4.42,4.28,4.28,0,0,1-2.72,4.11A4.4,4.4,0,0,1,185,77c0,2.77-2.34,4.83-5.32,4.83Zm2-10.33h2.72a2.66,2.66,0,0,0,2.85-2.85c0-1.88-1.36-2.85-3.34-2.85h-2.23ZM179,79.88c2.19,0,4-1.07,4-3.18,0-1.88-1.72-3.24-4-3.24h-2.77v6.42Zm7,2,7.52-18h.65l7.52,18h-2.23l-2.13-5.19h-7l-2.11,5.19Zm5.16-7.2h5.34l-2.67-6.55Z" transform="translate(-8.1 -7.07)"/></svg>